<svg id="visual" viewBox="0 0 900 600" width="900" height="600" xmlns="http://www.w3.org/2000/svg" xmlns:xlink="http://www.w3.org/1999/xlink" version="1.1"><g stroke-width="1" stroke-linejoin="bevel"><path d="M442 303L424 222L335.5 280Z" fill="#277297" stroke="#277297"></path><path d="M424 222L324.5 208L335.5 280Z" fill="#112e42" stroke="#112e42"></path><path d="M224 279L316.5 387L335.5 280Z" fill="#1d4e6b" stroke="#1d4e6b"></path><path d="M335.5 280L316.5 387L442 303Z" fill="#15384f" stroke="#15384f"></path><path d="M448 431L541.5 286L442 303Z" fill="#246688" stroke="#246688"></path><path d="M442 303L541.5 286L424 222Z" fill="#277297" stroke="#277297"></path><path d="M369.5 69L260 189L324.5 208Z" fill="#1d4e6b" stroke="#1d4e6b"></path><path d="M324.5 208L224 279L335.5 280Z" fill="#081a28" stroke="#081a28"></path><path d="M316.5 387L448 431L442 303Z" fill="#15384f" stroke="#15384f"></path><path d="M260 189L224 279L324.5 208Z" fill="#112e42" stroke="#112e42"></path><path d="M568.5 214L460 102L424 222Z" fill="#297ea6" stroke="#297ea6"></path><path d="M424 222L369.5 69L324.5 208Z" fill="#297ea6" stroke="#297ea6"></path><path d="M541.5 286L568.5 214L424 222Z" fill="#15384f" stroke="#15384f"></path><path d="M460 102L369.5 69L424 222Z" fill="#205a7a" stroke="#205a7a"></path><path d="M316.5 387L432 483L448 431Z" fill="#246688" stroke="#246688"></path><path d="M448 431L577.5 419L541.5 286Z" fill="#00101c" stroke="#00101c"></path><path d="M568.5 214L548.5 111L460 102Z" fill="#00101c" stroke="#00101c"></path><path d="M467 0L341.5 0L369.5 69Z" fill="#081a28" stroke="#081a28"></path><path d="M224 279L205 398L316.5 387Z" fill="#112e42" stroke="#112e42"></path><path d="M316.5 387L309.5 533L432 483Z" fill="#277297" stroke="#277297"></path><path d="M570.5 506L577.5 419L448 431Z" fill="#00101c" stroke="#00101c"></path><path d="M541.5 286L648 312L568.5 214Z" fill="#00101c" stroke="#00101c"></path><path d="M577.5 419L648 312L541.5 286Z" fill="#297ea6" stroke="#297ea6"></path><path d="M568.5 214L659 124L548.5 111Z" fill="#0c2435" stroke="#0c2435"></path><path d="M369.5 69L203 81L260 189Z" fill="#081a28" stroke="#081a28"></path><path d="M260 189L99.5 227L224 279Z" fill="#246688" stroke="#246688"></path><path d="M224 279L80.5 283L205 398Z" fill="#112e42" stroke="#112e42"></path><path d="M214 524L309.5 533L316.5 387Z" fill="#00101c" stroke="#00101c"></path><path d="M467 0L369.5 69L460 102Z" fill="#0c2435" stroke="#0c2435"></path><path d="M369.5 69L241 0L203 81Z" fill="#1d4e6b" stroke="#1d4e6b"></path><path d="M546.5 0L467 0L460 102Z" fill="#112e42" stroke="#112e42"></path><path d="M648 312L670 187L568.5 214Z" fill="#1d4e6b" stroke="#1d4e6b"></path><path d="M548.5 111L546.5 0L460 102Z" fill="#112e42" stroke="#112e42"></path><path d="M446 600L570.5 506L432 483Z" fill="#0c2435" stroke="#0c2435"></path><path d="M432 483L570.5 506L448 431Z" fill="#15384f" stroke="#15384f"></path><path d="M577.5 419L693 386L648 312Z" fill="#246688" stroke="#246688"></path><path d="M119.5 133L99.5 227L260 189Z" fill="#277297" stroke="#277297"></path><path d="M670 187L659 124L568.5 214Z" fill="#0c2435" stroke="#0c2435"></path><path d="M203 81L119.5 133L260 189Z" fill="#112e42" stroke="#112e42"></path><path d="M205 398L214 524L316.5 387Z" fill="#277297" stroke="#277297"></path><path d="M100.5 473L214 524L205 398Z" fill="#112e42" stroke="#112e42"></path><path d="M341.5 0L241 0L369.5 69Z" fill="#205a7a" stroke="#205a7a"></path><path d="M203 81L99.5 0L119.5 133Z" fill="#15384f" stroke="#15384f"></path><path d="M659 124L546.5 0L548.5 111Z" fill="#15384f" stroke="#15384f"></path><path d="M0 296L80.5 283L99.5 227Z" fill="#15384f" stroke="#15384f"></path><path d="M99.5 227L80.5 283L224 279Z" fill="#112e42" stroke="#112e42"></path><path d="M690 495L693 386L577.5 419Z" fill="#0c2435" stroke="#0c2435"></path><path d="M648 312L751.5 227L670 187Z" fill="#297ea6" stroke="#297ea6"></path><path d="M309.5 533L446 600L432 483Z" fill="#081a28" stroke="#081a28"></path><path d="M325.5 600L446 600L309.5 533Z" fill="#19435d" stroke="#19435d"></path><path d="M195 600L325.5 600L309.5 533Z" fill="#277297" stroke="#277297"></path><path d="M80.5 283L87.5 410L205 398Z" fill="#1d4e6b" stroke="#1d4e6b"></path><path d="M87.5 410L100.5 473L205 398Z" fill="#246688" stroke="#246688"></path><path d="M214 524L195 600L309.5 533Z" fill="#205a7a" stroke="#205a7a"></path><path d="M670 187L791.5 135L659 124Z" fill="#19435d" stroke="#19435d"></path><path d="M795.5 303L751.5 227L648 312Z" fill="#15384f" stroke="#15384f"></path><path d="M446 600L554.5 600L570.5 506Z" fill="#00101c" stroke="#00101c"></path><path d="M570.5 506L690 495L577.5 419Z" fill="#081a28" stroke="#081a28"></path><path d="M647 600L690 495L570.5 506Z" fill="#081a28" stroke="#081a28"></path><path d="M693 386L795.5 303L648 312Z" fill="#277297" stroke="#277297"></path><path d="M136.5 600L195 600L214 524Z" fill="#205a7a" stroke="#205a7a"></path><path d="M87.5 410L0 426L100.5 473Z" fill="#277297" stroke="#277297"></path><path d="M80.5 283L0 296L87.5 410Z" fill="#297ea6" stroke="#297ea6"></path><path d="M0 165L0 296L99.5 227Z" fill="#15384f" stroke="#15384f"></path><path d="M241 0L99.5 0L203 81Z" fill="#0c2435" stroke="#0c2435"></path><path d="M119.5 133L0 165L99.5 227Z" fill="#277297" stroke="#277297"></path><path d="M809.5 404L795.5 303L693 386Z" fill="#1d4e6b" stroke="#1d4e6b"></path><path d="M791.5 135L670 187L751.5 227Z" fill="#1d4e6b" stroke="#1d4e6b"></path><path d="M791.5 135L696 0L659 124Z" fill="#00101c" stroke="#00101c"></path><path d="M659 124L696 0L546.5 0Z" fill="#0c2435" stroke="#0c2435"></path><path d="M0 98L0 165L119.5 133Z" fill="#1d4e6b" stroke="#1d4e6b"></path><path d="M554.5 600L647 600L570.5 506Z" fill="#205a7a" stroke="#205a7a"></path><path d="M802.5 478L809.5 404L693 386Z" fill="#19435d" stroke="#19435d"></path><path d="M100.5 473L136.5 600L214 524Z" fill="#0c2435" stroke="#0c2435"></path><path d="M0 600L136.5 600L100.5 473Z" fill="#112e42" stroke="#112e42"></path><path d="M900 217L791.5 135L751.5 227Z" fill="#0c2435" stroke="#0c2435"></path><path d="M0 296L0 426L87.5 410Z" fill="#246688" stroke="#246688"></path><path d="M99.5 0L0 98L119.5 133Z" fill="#297ea6" stroke="#297ea6"></path><path d="M802.5 478L693 386L690 495Z" fill="#112e42" stroke="#112e42"></path><path d="M795.5 303L900 217L751.5 227Z" fill="#081a28" stroke="#081a28"></path><path d="M0 426L0 487L100.5 473Z" fill="#205a7a" stroke="#205a7a"></path><path d="M818.5 600L802.5 478L690 495Z" fill="#246688" stroke="#246688"></path><path d="M99.5 0L0 0L0 98Z" fill="#205a7a" stroke="#205a7a"></path><path d="M900 81L799.5 0L791.5 135Z" fill="#246688" stroke="#246688"></path><path d="M791.5 135L799.5 0L696 0Z" fill="#081a28" stroke="#081a28"></path><path d="M900 370L795.5 303L809.5 404Z" fill="#0c2435" stroke="#0c2435"></path><path d="M900 370L900 282L795.5 303Z" fill="#0c2435" stroke="#0c2435"></path><path d="M900 282L900 217L795.5 303Z" fill="#277297" stroke="#277297"></path><path d="M0 487L0 600L100.5 473Z" fill="#00101c" stroke="#00101c"></path><path d="M900 523L900 370L809.5 404Z" fill="#1d4e6b" stroke="#1d4e6b"></path><path d="M647 600L818.5 600L690 495Z" fill="#112e42" stroke="#112e42"></path><path d="M802.5 478L900 523L809.5 404Z" fill="#00101c" stroke="#00101c"></path><path d="M900 217L900 81L791.5 135Z" fill="#0c2435" stroke="#0c2435"></path><path d="M818.5 600L900 523L802.5 478Z" fill="#297ea6" stroke="#297ea6"></path><path d="M900 81L900 0L799.5 0Z" fill="#246688" stroke="#246688"></path><path d="M818.5 600L900 600L900 523Z" fill="#081a28" stroke="#081a28"></path></g></svg>